<svg xmlns="http://www.w3.org/2000/svg" viewBox="0 0 320 320" role="img" aria-label="registry.pkl mark">
  <defs>
    <linearGradient id="reg-gradient" x1="0" y1="0" x2="1" y2="1">
      <stop offset="0%" stop-color="#7dd3c0"/>
      <stop offset="100%" stop-color="#0e8a78"/>
    </linearGradient>
    <linearGradient id="reg-gradient-warm" x1="0" y1="0" x2="0" y2="1">
      <stop offset="0%" stop-color="#d8b264"/>
      <stop offset="100%" stop-color="#b88a3a"/>
    </linearGradient>
  </defs>
  <g fill="none" stroke="currentColor" stroke-linecap="round" stroke-width="1">
    <line x1="40" y1="74" x2="200" y2="74" stroke-opacity="0.45"/>
    <line x1="40" y1="106" x2="172" y2="106" stroke-opacity="0.32"/>
    <line x1="40" y1="138" x2="226" y2="138" stroke-opacity="0.45"/>
    <line x1="40" y1="170" x2="194" y2="170" stroke-opacity="0.32"/>
    <line x1="40" y1="202" x2="240" y2="202" stroke-opacity="0.45"/>
    <line x1="40" y1="234" x2="180" y2="234" stroke-opacity="0.28"/>
  </g>
  <path d="M232 38c-44 0-52 38-52 70 0 30-22 42-52 50 30 8 52 20 52 50 0 32 8 70 52 70" fill="none" stroke="url(#reg-gradient)" stroke-width="3" stroke-linecap="round"/>
  <path d="M260 60c-30 4-38 28-38 56 0 26-15 40-34 50 19 10 34 24 34 50 0 28 8 52 38 56" fill="none" stroke="url(#reg-gradient-warm)" stroke-width="1.4" stroke-linecap="round" stroke-opacity="0.6"/>
  <path d="M44 268c64-22 122-15 168 14 46 30 96 24 64-2" fill="none" stroke="#0e8a78" stroke-width="1.3" stroke-linecap="round" stroke-opacity="0.45">
    <animate attributeName="stroke-opacity" values="0.3;0.6;0.3" dur="9s" repeatCount="indefinite"/>
  </path>
  <circle cx="32" cy="74" r="2.6" fill="url(#reg-gradient)"/>
  <circle cx="32" cy="138" r="2.6" fill="url(#reg-gradient)"/>
  <circle cx="32" cy="202" r="2.6" fill="url(#reg-gradient)"/>
</svg>
